<?xml version="1.0" encoding="utf-8"?>
<!-- Generator: Adobe Illustrator 27.5.0, SVG Export Plug-In . SVG Version: 6.00 Build 0)  -->
<svg version="1.1" id="Layer_1" xmlns="http://www.w3.org/2000/svg" xmlns:xlink="http://www.w3.org/1999/xlink" x="0px" y="0px"
	 viewBox="0 0 5000 2916" style="enable-background:new 0 0 5000 2916;" xml:space="preserve">
<g>
	<rect style="fill-rule:evenodd;clip-rule:evenodd;fill:#1E003D;" width="5000" height="2916"/>
	<g>
		<defs>
			<path id="SVGID_1_" d="M3119.277,2407.233c470.97,0,896.39,195.036,1199.931,508.767c-1475.514,0-2849.955,0-4319.208,0v-841.175
				c154.652-47.309,318.849-72.761,488.991-72.761c305.645,0,592.108,82.142,838.524,225.56
				c33.75,23.121,68.396,45.039,103.866,65.687C2200.237,2740.798,2457.118,2407.233,3119.277,2407.233"/>
		</defs>
		<clipPath id="SVGID_00000106123526800688560630000011400342564178718618_">
			<use xlink:href="#SVGID_1_"  style="overflow:visible;"/>
		</clipPath>
		
			<linearGradient id="SVGID_00000178192586383067644010000002770477444712503178_" gradientUnits="userSpaceOnUse" x1="2082.2869" y1="2766.04" x2="2232.5635" y2="2169.3274">
			<stop  offset="0" style="stop-color:#3E005D"/>
			<stop  offset="1" style="stop-color:#641087"/>
		</linearGradient>
		
			<rect y="2002.065" style="clip-path:url(#SVGID_00000106123526800688560630000011400342564178718618_);fill:url(#SVGID_00000178192586383067644010000002770477444712503178_);" width="4319.208" height="913.935"/>
	</g>
	<g>
		<defs>
			<path id="SVGID_00000076596547314739439420000017475671186738044811_" d="M3734.958,2916H652.866H0v-681.618
				c644.716,315.063,1027.283,205.128,1458.561,95.35C2308.577,2113.377,3078.351,2201.991,3734.958,2916"/>
		</defs>
		<clipPath id="SVGID_00000111875057682048509060000014250932466298923424_">
			<use xlink:href="#SVGID_00000076596547314739439420000017475671186738044811_"  style="overflow:visible;"/>
		</clipPath>
		
			<linearGradient id="SVGID_00000134232543785979673250000002471474273678842790_" gradientUnits="userSpaceOnUse" x1="1923.1141" y1="2017.0043" x2="1840.3315" y2="2757.5364">
			<stop  offset="0" style="stop-color:#F95C97"/>
			<stop  offset="1" style="stop-color:#450561"/>
		</linearGradient>
		
			<rect y="2113.377" style="opacity:0.55;clip-path:url(#SVGID_00000111875057682048509060000014250932466298923424_);fill:url(#SVGID_00000134232543785979673250000002471474273678842790_);" width="3734.958" height="802.623"/>
	</g>
	<g>
		<defs>
			<path id="SVGID_00000155128284892687470890000001465180852114455692_" d="M2637.302,2916H460.997H0v-428.193
				c455.243,197.923,725.378,128.862,1029.91,59.898C1630.114,2411.792,2173.664,2467.459,2637.302,2916"/>
		</defs>
		<clipPath id="SVGID_00000083786333893875617900000014714796713865581749_">
			<use xlink:href="#SVGID_00000155128284892687470890000001465180852114455692_"  style="overflow:visible;"/>
		</clipPath>
		
			<linearGradient id="SVGID_00000009567996789882382990000008666626741302183066_" gradientUnits="userSpaceOnUse" x1="1346.387" y1="2303.6162" x2="1295.3772" y2="2966.2102">
			<stop  offset="0" style="stop-color:#F95C97"/>
			<stop  offset="1" style="stop-color:#4E046D"/>
		</linearGradient>
		
			<rect y="2411.792" style="opacity:0.83;clip-path:url(#SVGID_00000083786333893875617900000014714796713865581749_);fill:url(#SVGID_00000009567996789882382990000008666626741302183066_);" width="2637.302" height="504.208"/>
	</g>
	<g>
		<defs>
			<path id="SVGID_00000025423616469739132970000002309334202375919784_" d="M1423.52,2916H248.832H0v-234.67
				c245.722,108.473,391.533,70.624,555.91,32.829C879.88,2639.671,1173.263,2670.178,1423.52,2916"/>
		</defs>
		<clipPath id="SVGID_00000074404183086851998240000016234898611007045797_">
			<use xlink:href="#SVGID_00000025423616469739132970000002309334202375919784_"  style="overflow:visible;"/>
		</clipPath>
		
			<linearGradient id="SVGID_00000028293713465057068040000005198696936499935361_" gradientUnits="userSpaceOnUse" x1="735.7639" y1="2581.417" x2="680.4659" y2="3033.9116">
			<stop  offset="0" style="stop-color:#F95C97"/>
			<stop  offset="1" style="stop-color:#4E046D"/>
		</linearGradient>
		
			<rect y="2639.671" style="clip-path:url(#SVGID_00000074404183086851998240000016234898611007045797_);fill:url(#SVGID_00000028293713465057068040000005198696936499935361_);" width="1423.52" height="276.329"/>
	</g>
	<g>
		<defs>
			<path id="SVGID_00000150082761465506669570000015785127471852888998_" d="M1880.726,508.765
				c-470.97,0-896.392-195.038-1199.934-508.765C2156.308,0,3530.75,0,5000,0v841.171
				c-154.651,47.309-318.849,72.764-488.988,72.764c-305.648,0-592.11-82.144-838.527-225.563
				c-33.747-23.121-68.391-45.036-103.863-65.683C2799.763,175.202,2542.882,508.765,1880.726,508.765"/>
		</defs>
		<clipPath id="SVGID_00000003783555405046858600000009382475816433362318_">
			<use xlink:href="#SVGID_00000150082761465506669570000015785127471852888998_"  style="overflow:visible;"/>
		</clipPath>
		
			<linearGradient id="SVGID_00000022555866710556918360000001038938461756150197_" gradientUnits="userSpaceOnUse" x1="2917.6123" y1="150.1352" x2="2767.4458" y2="746.8478">
			<stop  offset="0" style="stop-color:#3E005D"/>
			<stop  offset="1" style="stop-color:#641087"/>
		</linearGradient>
		
			<rect x="680.792" style="clip-path:url(#SVGID_00000003783555405046858600000009382475816433362318_);fill:url(#SVGID_00000022555866710556918360000001038938461756150197_);" width="4319.208" height="913.935"/>
	</g>
	<g>
		<defs>
			<path id="SVGID_00000144300055795818907310000004973024224885819782_" d="M1265.045,0h3082.09H5000v681.616
				c-644.715-315.064-1027.28-205.126-1458.561-95.346C2691.426,802.623,1921.649,714.008,1265.045,0"/>
		</defs>
		<clipPath id="SVGID_00000162330743699208989870000015241204366551533460_">
			<use xlink:href="#SVGID_00000144300055795818907310000004973024224885819782_"  style="overflow:visible;"/>
		</clipPath>
		
			<linearGradient id="SVGID_00000065075990436983022470000009170140834295142318_" gradientUnits="userSpaceOnUse" x1="3076.887" y1="898.999" x2="3159.6694" y2="158.467">
			<stop  offset="0" style="stop-color:#F95C97"/>
			<stop  offset="1" style="stop-color:#450561"/>
		</linearGradient>
		
			<rect x="1265.045" style="opacity:0.55;clip-path:url(#SVGID_00000162330743699208989870000015241204366551533460_);fill:url(#SVGID_00000065075990436983022470000009170140834295142318_);" width="3734.955" height="802.623"/>
	</g>
	<g>
		<defs>
			<path id="SVGID_00000170974794642475872400000017254530516898232201_" d="M2362.701,0h2176.302H5000v428.194
				c-455.244-197.924-725.378-128.861-1029.91-59.899C3369.886,504.208,2826.336,448.541,2362.701,0"/>
		</defs>
		<clipPath id="SVGID_00000036236607028252102970000005678558182771425441_">
			<use xlink:href="#SVGID_00000170974794642475872400000017254530516898232201_"  style="overflow:visible;"/>
		</clipPath>
		
			<linearGradient id="SVGID_00000080906985943028691300000002383513808566743974_" gradientUnits="userSpaceOnUse" x1="3653.6174" y1="612.2827" x2="3704.6274" y2="-50.2012">
			<stop  offset="0" style="stop-color:#F95C97"/>
			<stop  offset="1" style="stop-color:#4E046D"/>
		</linearGradient>
		
			<rect x="2362.701" style="opacity:0.83;clip-path:url(#SVGID_00000036236607028252102970000005678558182771425441_);fill:url(#SVGID_00000080906985943028691300000002383513808566743974_);" width="2637.299" height="504.208"/>
	</g>
	<g>
		<defs>
			<path id="SVGID_00000047749061323422935680000009553200393592751488_" d="M3576.482,0h1174.691H5000v234.668
				c-245.722-108.47-391.531-70.62-555.905-32.827C4120.125,276.329,3826.737,245.821,3576.482,0"/>
		</defs>
		<clipPath id="SVGID_00000011709754531061948600000007345677529430147255_">
			<use xlink:href="#SVGID_00000047749061323422935680000009553200393592751488_"  style="overflow:visible;"/>
		</clipPath>
		
			<linearGradient id="SVGID_00000121269263755925194490000014693163461765605253_" gradientUnits="userSpaceOnUse" x1="4264.1943" y1="334.5457" x2="4319.6021" y2="-117.949">
			<stop  offset="0" style="stop-color:#F95C97"/>
			<stop  offset="1" style="stop-color:#4E046D"/>
		</linearGradient>
		
			<rect x="3576.482" style="clip-path:url(#SVGID_00000011709754531061948600000007345677529430147255_);fill:url(#SVGID_00000121269263755925194490000014693163461765605253_);" width="1423.518" height="276.329"/>
	</g>
</g>
</svg>
